<svg
  xmlns="http://www.w3.org/2000/svg"
  width="100%"
  height="100%"
  viewBox="0 0 2000 400"
  preserveAspectRatio="xMidYMid meet"
  lang="__LANGUAGE__"
  xml:lang="__LANGUAGE__"
  direction="__TEXT_DIRECTION__"
  role="img"
  aria-labelledby="title description"
>
  <title id="title">__ACCESSIBLE_TITLE__</title>
  <desc id="description">__ACCESSIBLE_DESCRIPTION__</desc>

  <rect width="2000" height="400" fill="__COLOR_BACKGROUND__"/>

  <g
    fill="none"
    stroke="__COLOR_PRIMARY__"
    stroke-width="1.5"
    stroke-linecap="round"
    opacity="0.1"
  >
    <path d="M-70 48 C80 0 230 18 336 92 C430 158 516 172 640 128"/>
    <path d="M-76 78 C70 34 214 48 316 116 C410 178 494 194 620 154"/>
    <path d="M-82 108 C60 68 198 78 296 140 C388 198 474 216 600 180"/>
    <path d="M2070 352 C1920 400 1770 382 1664 308 C1570 242 1484 228 1360 272"/>
    <path d="M2076 322 C1930 366 1786 352 1684 284 C1590 222 1506 206 1380 246"/>
    <path d="M2082 292 C1940 332 1802 322 1704 260 C1612 202 1526 184 1400 220"/>
  </g>

  <g fill="none" stroke="__COLOR_PRIMARY__" stroke-width="1" opacity="0.07">
    <path d="M1510 34 C1630 10 1758 20 1850 66 C1926 104 1974 144 2030 150"/>
    <path d="M-30 310 C76 320 136 356 214 376 C302 398 390 388 480 352"/>
  </g>

  <line
    x1="__DIVIDER_X__"
    y1="72"
    x2="__DIVIDER_X__"
    y2="328"
    stroke="__COLOR_BORDER__"
    stroke-width="2"
  />

  __PROJECT_IDENTITY__

  <g letter-spacing="0">
    <text
      id="headline"
      data-safe-text="true"
      x="__PRIMARY_X__"
      y="238"
      text-anchor="__TEXT_ANCHOR__"
      fill="__COLOR_PRIMARY__"
      font-family="__HEADLINE_FONT_FAMILY__"
      font-size="__HEADLINE_SIZE__"
      font-style="__HEADLINE_FONT_STYLE__"
      font-weight="400"
    >__HEADLINE__</text>

    <rect
      x="__RULE_X__"
      y="124"
      width="64"
      height="4"
      rx="2"
      fill="__COLOR_PRIMARY__"
    />

    <text
      id="description-line-1"
      data-safe-text="true"
      x="__SECONDARY_X__"
      y="188"
      text-anchor="__TEXT_ANCHOR__"
      fill="__COLOR_MUTED__"
      font-family="__DESCRIPTION_FONT_FAMILY__"
      font-size="__DESCRIPTION_SIZE__"
      font-weight="400"
    >__DESCRIPTION_LINE_1__</text>

    <text
      id="description-line-2"
      data-safe-text="true"
      x="__SECONDARY_X__"
      y="232"
      text-anchor="__TEXT_ANCHOR__"
      fill="__COLOR_MUTED__"
      font-family="__DESCRIPTION_FONT_FAMILY__"
      font-size="__DESCRIPTION_SIZE__"
      font-weight="400"
    >__DESCRIPTION_LINE_2__</text>
  </g>
</svg>
