<?xml version="1.0" encoding="UTF-8"?>
<svg xmlns="http://www.w3.org/2000/svg" viewBox="0 0 512 512" role="img" aria-labelledby="logo-title logo-description">
  <title id="logo-title">Generate Project Visuals logo mark</title>
  <desc id="logo-description">Editable vector mark for Generate Project Visuals.</desc>
  <g id="logo-mark"><path xmlns="http://www.w3.org/2000/svg" d="M176 64 H92 C76 64 64 76 64 92 V176 H108 V108 H176 Z" fill="#202124" />
  <path xmlns="http://www.w3.org/2000/svg" d="M336 64 H420 C436 64 448 76 448 92 V176 H404 V108 H336 Z" fill="#2855d9" />
  <path xmlns="http://www.w3.org/2000/svg" d="M176 448 H92 C76 448 64 436 64 420 V336 H108 V404 H176 Z" fill="#2855d9" />
  <path xmlns="http://www.w3.org/2000/svg" d="M336 448 H420 C436 448 448 436 448 420 V336 H404 V404 H336 Z" fill="#202124" />
  <rect xmlns="http://www.w3.org/2000/svg" x="136" y="176" width="240" height="160" rx="32" fill="#2855d9" />
  <rect xmlns="http://www.w3.org/2000/svg" x="176" y="216" width="160" height="80" rx="20" fill="#202124" />
</g>
</svg>
