<svg
  xmlns="http://www.w3.org/2000/svg"
  width="100%"
  height="100%"
  viewBox="0 0 1920 1080"
  preserveAspectRatio="xMidYMid meet"
  lang="en"
  xml:lang="en"
  direction="ltr"
  role="img"
  aria-labelledby="title description"
>
  <title id="title">Generate Project Visuals</title>
  <desc id="description">Make every project ready to be seen. Generate a Logo, English and Chinese Covers, and exact-size Social Previews, plus share-ready Promo images from the repository. https://github.com/ascendho/Generate-Project-Visuals</desc>

  <rect width="1920" height="1080" fill="#ffffff"/>

  <g
    fill="none"
    stroke="#2855d9"
    stroke-width="2"
    stroke-linecap="round"
    opacity="0.12"
  >
    <g>
      <path d="M-90 72 C54 8 216 18 318 104 C410 182 408 296 548 354"/>
      <path d="M-98 108 C48 44 202 52 292 128 C376 198 376 310 516 374"/>
      <path d="M-104 144 C40 82 184 86 266 154 C342 218 344 324 484 394"/>
      <path d="M-110 180 C34 120 168 120 240 180 C310 238 312 340 452 414"/>
      <path d="M-116 216 C26 158 150 154 214 204 C278 258 280 354 420 434"/>
      <path d="M-122 252 C20 196 134 188 188 230 C246 278 248 370 388 454"/>
    </g>
    <g transform="translate(1920 1080) scale(-1 -1)">
      <path d="M-90 72 C54 8 216 18 318 104 C410 182 408 296 548 354"/>
      <path d="M-98 108 C48 44 202 52 292 128 C376 198 376 310 516 374"/>
      <path d="M-104 144 C40 82 184 86 266 154 C342 218 344 324 484 394"/>
      <path d="M-110 180 C34 120 168 120 240 180 C310 238 312 340 452 414"/>
      <path d="M-116 216 C26 158 150 154 214 204 C278 258 280 354 420 434"/>
      <path d="M-122 252 C20 196 134 188 188 230 C246 278 248 370 388 454"/>
    </g>
  </g>

  <g fill="none" stroke="#2855d9" stroke-width="1.5" opacity="0.08">
    <path d="M1370 76 C1504 36 1650 46 1740 110 C1820 168 1860 252 1970 278"/>
    <path d="M1412 110 C1528 76 1650 84 1728 140 C1798 190 1838 264 1958 300"/>
    <path d="M1448 932 C1564 988 1690 992 1774 938 C1848 892 1890 826 1952 812"/>
    <path d="M-30 798 C72 816 110 890 190 936 C278 986 394 980 508 932"/>
  </g>

  <g id="promo-logo" data-safe-logo="true" direction="ltr" unicode-bidi="isolate" transform="translate(-161.2288 -112.8493) scale(1.40153558)"><g xmlns="http://www.w3.org/2000/svg" id="logo-mark" transform="translate(290.603 187.72) scale(0.155391)"><path d="M176 64 H92 C76 64 64 76 64 92 V176 H108 V108 H176 Z" fill="#202124" />
  <path d="M336 64 H420 C436 64 448 76 448 92 V176 H404 V108 H336 Z" fill="#2855d9" />
  <path d="M176 448 H92 C76 448 64 436 64 420 V336 H108 V404 H176 Z" fill="#2855d9" />
  <path d="M336 448 H420 C436 448 448 436 448 420 V336 H404 V404 H336 Z" fill="#202124" />
  <rect x="136" y="176" width="240" height="160" rx="32" fill="#2855d9" />
  <rect x="176" y="216" width="160" height="80" rx="20" fill="#202124" />
</g>
    <text xmlns="http://www.w3.org/2000/svg" id="logo-wordmark" x="396.218" y="258" fill="#202124" font-family="Inter, ui-sans-serif, -apple-system, BlinkMacSystemFont, Segoe UI, sans-serif" font-size="81" font-weight="700" letter-spacing="0">Generate Project Visuals</text>
  </g>

  <g text-anchor="middle" letter-spacing="0">
    <rect x="924" y="314" width="72" height="5" rx="2.5" fill="#2855d9"/>

    <text
      id="promo-headline"
      data-safe-text="true"
      x="960"
      y="430"
      fill="#2855d9"
      font-family="Georgia, 'Times New Roman', Times, serif"
      font-size="76"
      font-style="italic"
      font-weight="400"
    >Make every project ready to be seen.</text>

    <text
      id="promo-description-line-1"
      data-safe-text="true"
      x="960"
      y="530"
      fill="#5f6368"
      font-family="-apple-system, BlinkMacSystemFont, 'Segoe UI', 'Helvetica Neue', Helvetica, Arial, sans-serif"
      font-size="38"
      font-weight="400"
    >Generate a Logo, English and Chinese Covers, and exact-size Social Previews,</text>
    <text
      id="promo-description-line-2"
      data-safe-text="true"
      x="960"
      y="582"
      fill="#5f6368"
      font-family="-apple-system, BlinkMacSystemFont, 'Segoe UI', 'Helvetica Neue', Helvetica, Arial, sans-serif"
      font-size="38"
      font-weight="400"
    >plus share-ready Promo images from the repository.</text>
  </g>

  <path d="M540 650 H1380" fill="none" stroke="#d9dfef" stroke-width="2"/>

  <a href="https://github.com/ascendho/Generate-Project-Visuals" target="_blank">
    <rect x="570" y="700" width="220" height="220" rx="4" fill="#ffffff" stroke="#d9dfef" stroke-width="2"/>
    <g transform="translate(590 720) scale(4.00000000)" shape-rendering="crispEdges">
      <path id="promo-qr-modules" d="M4 4h7v1h-7zM13 4h2v1h-2zM18 4h1v1h-1zM20 4h1v1h-1zM22 4h1v1h-1zM24 4h3v1h-3zM28 4h1v1h-1zM30 4h3v1h-3zM34 4h7v1h-7zM4 5h1v1h-1zM10 5h1v1h-1zM14 5h5v1h-5zM20 5h2v1h-2zM24 5h1v1h-1zM29 5h1v1h-1zM32 5h1v1h-1zM34 5h1v1h-1zM40 5h1v1h-1zM4 6h1v1h-1zM6 6h3v1h-3zM10 6h1v1h-1zM12 6h2v1h-2zM15 6h1v1h-1zM17 6h1v1h-1zM20 6h1v1h-1zM24 6h4v1h-4zM30 6h1v1h-1zM32 6h1v1h-1zM34 6h1v1h-1zM36 6h3v1h-3zM40 6h1v1h-1zM4 7h1v1h-1zM6 7h3v1h-3zM10 7h1v1h-1zM14 7h3v1h-3zM20 7h2v1h-2zM27 7h1v1h-1zM30 7h3v1h-3zM34 7h1v1h-1zM36 7h3v1h-3zM40 7h1v1h-1zM4 8h1v1h-1zM6 8h3v1h-3zM10 8h1v1h-1zM12 8h4v1h-4zM18 8h1v1h-1zM20 8h1v1h-1zM25 8h3v1h-3zM29 8h1v1h-1zM31 8h1v1h-1zM34 8h1v1h-1zM36 8h3v1h-3zM40 8h1v1h-1zM4 9h1v1h-1zM10 9h1v1h-1zM12 9h1v1h-1zM16 9h2v1h-2zM21 9h1v1h-1zM25 9h2v1h-2zM28 9h3v1h-3zM32 9h1v1h-1zM34 9h1v1h-1zM40 9h1v1h-1zM4 10h7v1h-7zM12 10h1v1h-1zM14 10h1v1h-1zM16 10h1v1h-1zM18 10h1v1h-1zM20 10h1v1h-1zM22 10h1v1h-1zM24 10h1v1h-1zM26 10h1v1h-1zM28 10h1v1h-1zM30 10h1v1h-1zM32 10h1v1h-1zM34 10h7v1h-7zM13 11h1v1h-1zM15 11h2v1h-2zM18 11h1v1h-1zM22 11h4v1h-4zM5 12h1v1h-1zM8 12h1v1h-1zM10 12h1v1h-1zM12 12h2v1h-2zM17 12h3v1h-3zM22 12h1v1h-1zM25 12h1v1h-1zM27 12h5v1h-5zM33 12h1v1h-1zM35 12h2v1h-2zM38 12h1v1h-1zM4 13h2v1h-2zM8 13h2v1h-2zM11 13h3v1h-3zM15 13h1v1h-1zM17 13h1v1h-1zM21 13h1v1h-1zM23 13h1v1h-1zM27 13h1v1h-1zM30 13h1v1h-1zM36 13h2v1h-2zM5 14h1v1h-1zM9 14h3v1h-3zM18 14h1v1h-1zM21 14h1v1h-1zM23 14h3v1h-3zM27 14h1v1h-1zM29 14h3v1h-3zM33 14h1v1h-1zM35 14h1v1h-1zM37 14h1v1h-1zM6 15h1v1h-1zM12 15h2v1h-2zM16 15h2v1h-2zM20 15h1v1h-1zM22 15h2v1h-2zM25 15h1v1h-1zM27 15h1v1h-1zM30 15h1v1h-1zM32 15h2v1h-2zM35 15h1v1h-1zM38 15h1v1h-1zM4 16h2v1h-2zM7 16h1v1h-1zM9 16h3v1h-3zM13 16h1v1h-1zM17 16h2v1h-2zM23 16h6v1h-6zM33 16h3v1h-3zM38 16h3v1h-3zM4 17h1v1h-1zM6 17h4v1h-4zM12 17h1v1h-1zM14 17h1v1h-1zM16 17h1v1h-1zM18 17h2v1h-2zM21 17h2v1h-2zM25 17h1v1h-1zM27 17h1v1h-1zM29 17h3v1h-3zM33 17h1v1h-1zM36 17h1v1h-1zM38 17h1v1h-1zM4 18h4v1h-4zM9 18h2v1h-2zM12 18h1v1h-1zM14 18h3v1h-3zM18 18h1v1h-1zM21 18h2v1h-2zM24 18h1v1h-1zM27 18h1v1h-1zM30 18h2v1h-2zM34 18h1v1h-1zM36 18h3v1h-3zM4 19h1v1h-1zM9 19h1v1h-1zM11 19h1v1h-1zM13 19h3v1h-3zM21 19h3v1h-3zM26 19h3v1h-3zM30 19h2v1h-2zM34 19h1v1h-1zM38 19h3v1h-3zM4 20h1v1h-1zM6 20h1v1h-1zM8 20h3v1h-3zM13 20h1v1h-1zM15 20h5v1h-5zM21 20h1v1h-1zM23 20h1v1h-1zM26 20h1v1h-1zM28 20h1v1h-1zM33 20h3v1h-3zM37 20h3v1h-3zM4 21h1v1h-1zM7 21h1v1h-1zM14 21h1v1h-1zM17 21h1v1h-1zM19 21h1v1h-1zM21 21h1v1h-1zM23 21h1v1h-1zM29 21h4v1h-4zM35 21h2v1h-2zM4 22h1v1h-1zM6 22h2v1h-2zM9 22h2v1h-2zM14 22h1v1h-1zM17 22h2v1h-2zM20 22h3v1h-3zM24 22h2v1h-2zM31 22h1v1h-1zM33 22h1v1h-1zM35 22h1v1h-1zM5 23h2v1h-2zM12 23h2v1h-2zM19 23h1v1h-1zM23 23h1v1h-1zM25 23h1v1h-1zM28 23h1v1h-1zM32 23h1v1h-1zM35 23h2v1h-2zM38 23h2v1h-2zM4 24h1v1h-1zM7 24h1v1h-1zM9 24h4v1h-4zM14 24h1v1h-1zM16 24h1v1h-1zM19 24h1v1h-1zM23 24h1v1h-1zM25 24h4v1h-4zM33 24h2v1h-2zM38 24h3v1h-3zM4 25h2v1h-2zM8 25h1v1h-1zM12 25h3v1h-3zM16 25h2v1h-2zM19 25h2v1h-2zM23 25h1v1h-1zM25 25h1v1h-1zM27 25h1v1h-1zM31 25h1v1h-1zM33 25h1v1h-1zM36 25h5v1h-5zM5 26h2v1h-2zM9 26h2v1h-2zM12 26h1v1h-1zM15 26h5v1h-5zM24 26h1v1h-1zM27 26h7v1h-7zM37 26h1v1h-1zM6 27h2v1h-2zM9 27h1v1h-1zM15 27h2v1h-2zM21 27h3v1h-3zM25 27h1v1h-1zM28 27h2v1h-2zM32 27h1v1h-1zM35 27h1v1h-1zM38 27h1v1h-1zM4 28h1v1h-1zM8 28h1v1h-1zM10 28h1v1h-1zM12 28h2v1h-2zM16 28h1v1h-1zM18 28h1v1h-1zM20 28h2v1h-2zM26 28h4v1h-4zM31 28h4v1h-4zM38 28h2v1h-2zM4 29h1v1h-1zM6 29h1v1h-1zM11 29h3v1h-3zM15 29h2v1h-2zM19 29h1v1h-1zM22 29h2v1h-2zM27 29h1v1h-1zM29 29h4v1h-4zM36 29h1v1h-1zM38 29h1v1h-1zM6 30h7v1h-7zM17 30h1v1h-1zM19 30h2v1h-2zM22 30h1v1h-1zM26 30h2v1h-2zM29 30h5v1h-5zM35 30h2v1h-2zM38 30h1v1h-1zM6 31h1v1h-1zM12 31h3v1h-3zM17 31h2v1h-2zM21 31h5v1h-5zM27 31h2v1h-2zM30 31h2v1h-2zM34 31h1v1h-1zM38 31h1v1h-1zM40 31h1v1h-1zM4 32h7v1h-7zM12 32h2v1h-2zM18 32h3v1h-3zM24 32h3v1h-3zM31 32h10v1h-10zM12 33h5v1h-5zM19 33h1v1h-1zM21 33h1v1h-1zM24 33h1v1h-1zM26 33h2v1h-2zM30 33h1v1h-1zM32 33h1v1h-1zM36 33h2v1h-2zM4 34h7v1h-7zM13 34h1v1h-1zM19 34h1v1h-1zM23 34h8v1h-8zM32 34h1v1h-1zM34 34h1v1h-1zM36 34h4v1h-4zM4 35h1v1h-1zM10 35h1v1h-1zM14 35h4v1h-4zM19 35h2v1h-2zM22 35h2v1h-2zM25 35h1v1h-1zM27 35h1v1h-1zM32 35h1v1h-1zM36 35h1v1h-1zM38 35h3v1h-3zM4 36h1v1h-1zM6 36h3v1h-3zM10 36h1v1h-1zM12 36h1v1h-1zM20 36h1v1h-1zM23 36h2v1h-2zM27 36h1v1h-1zM32 36h7v1h-7zM40 36h1v1h-1zM4 37h1v1h-1zM6 37h3v1h-3zM10 37h1v1h-1zM14 37h1v1h-1zM19 37h1v1h-1zM21 37h3v1h-3zM26 37h1v1h-1zM28 37h3v1h-3zM34 37h1v1h-1zM37 37h3v1h-3zM4 38h1v1h-1zM6 38h3v1h-3zM10 38h1v1h-1zM13 38h1v1h-1zM15 38h2v1h-2zM18 38h2v1h-2zM23 38h1v1h-1zM25 38h1v1h-1zM27 38h3v1h-3zM32 38h1v1h-1zM34 38h2v1h-2zM39 38h1v1h-1zM4 39h1v1h-1zM10 39h1v1h-1zM12 39h1v1h-1zM17 39h2v1h-2zM22 39h6v1h-6zM33 39h1v1h-1zM35 39h1v1h-1zM38 39h2v1h-2zM4 40h7v1h-7zM13 40h1v1h-1zM17 40h2v1h-2zM24 40h2v1h-2zM28 40h1v1h-1zM31 40h1v1h-1zM33 40h2v1h-2zM36 40h1v1h-1zM38 40h3v1h-3z" fill="#202124"/>
    </g>
    <g letter-spacing="0">
      <text
        id="promo-cta"
        data-safe-text="true"
        x="840"
        y="780"
        fill="#5f6368"
        font-family="-apple-system, BlinkMacSystemFont, 'Segoe UI', 'Helvetica Neue', Helvetica, Arial, sans-serif"
        font-size="28"
        font-weight="500"
        text-anchor="start"
      >View the skill</text>
      <text
        id="promo-project-url"
        data-safe-text="true"
        x="840"
        y="835"
        fill="#2855d9"
        font-family="ui-monospace, SFMono-Regular, Menlo, Monaco, Consolas, monospace"
        font-size="26"
        font-weight="500"
        text-anchor="start"
        direction="ltr"
        unicode-bidi="isolate"
      >github.com/ascendho/Generate-Project-Visuals</text>
    </g>
  </a>

  <text
    id="promo-notice"
    data-safe-text="true"
    x="960"
    y="970"
    text-anchor="middle"
    letter-spacing="0"
    fill="#72767d"
    font-family="-apple-system, BlinkMacSystemFont, 'Segoe UI', 'Helvetica Neue', Helvetica, Arial, sans-serif"
    font-size="22"
    font-weight="400"
  >Logo · Cover · Social Preview · Promo</text>
</svg>
